<svg width="138" height="32" viewBox="0 0 138 32" fill="none" xmlns="http://www.w3.org/2000/svg">
<path d="M9.75146 4.22799C7.77546 4.90399 5.98146 6.17799 4.73346 7.86799C3.48546 9.53199 2.73146 11.612 2.67946 13.692C2.57546 16.24 3.51146 18.814 5.22746 20.66C6.96946 22.532 9.51746 23.624 12.0655 23.442C13.3395 23.364 14.5875 22.974 15.6535 22.272C16.7195 21.57 17.6035 20.608 18.1755 19.438C18.5655 18.606 18.7995 17.696 18.8515 16.76H18.3575C17.8635 17.774 17.1095 18.658 16.1735 19.308C15.3155 19.932 14.3015 20.322 13.2355 20.478C13.2355 15.824 13.2355 11.17 13.2355 6.51599C13.3655 6.56799 13.4955 6.64599 13.6255 6.72399C14.5355 7.21799 15.4715 7.65999 16.4075 8.04999L19.5015 4.82599L19.2935 4.56599L18.4615 5.24199C17.8895 5.05999 17.2915 4.82599 16.7455 4.56599C15.8095 4.14999 14.8995 3.62999 14.0675 3.00599L7.20346 7.21799C7.87946 6.09999 8.86746 5.18999 10.0115 4.59199L9.75146 4.22799ZM6.55346 16.526C6.37146 16.084 6.21546 15.59 6.11146 15.122C5.85146 13.952 5.79946 12.756 5.90346 11.586C5.98146 10.52 6.18946 9.45399 6.57946 8.46599L7.98346 7.60799C7.98346 10.39 7.98346 13.146 7.98346 15.928L6.55346 16.526ZM6.83946 17.176L11.3375 15.278V5.55399L11.5455 5.44999C11.8575 5.65799 12.1695 5.86599 12.4815 6.07399C12.4815 10.884 12.4815 15.72 12.4815 20.53C11.6495 20.556 10.8175 20.426 10.0375 20.088C9.07546 19.724 8.24346 19.1 7.59346 18.294C7.30746 17.956 7.04746 17.566 6.83946 17.176Z" fill="#112233"/>
<path d="M30.9947 20.14L29.8767 20.894L28.6287 19.646V13.094L29.9807 12.002L29.5387 11.43L28.4727 12.288L24.6507 9.81799L21.7907 11.3C21.4787 11.456 21.1667 11.638 20.9067 11.846C20.6727 12.08 20.4647 12.314 20.3347 12.6C20.2047 12.912 20.1267 13.224 20.1527 13.536C20.1787 13.9 20.3087 14.238 20.4907 14.524C20.8547 15.07 21.4007 15.46 21.9987 15.746C22.1287 15.798 22.2587 15.85 22.3887 15.902C21.7647 16.24 21.1927 16.604 20.6727 17.072C20.3087 17.384 19.9707 17.748 19.7367 18.164C19.4767 18.606 19.2947 19.074 19.2687 19.568C19.2427 20.322 19.5287 21.076 19.9967 21.648C20.6727 22.48 21.7127 23 22.7787 23.13L25.5087 21.154L27.5107 23.13L31.1247 20.66L30.9947 20.14ZM25.4047 16.11C24.9107 16.006 24.4427 15.876 24.0007 15.72C23.5067 15.564 23.0127 15.408 22.5447 15.174C22.0767 14.966 21.6087 14.68 21.2967 14.264C21.0627 14.004 20.9067 13.666 20.9067 13.302C20.9067 13.042 20.9587 12.782 21.0887 12.548C21.2187 12.34 21.4007 12.132 21.6087 11.976C21.7647 11.846 21.9467 11.768 22.1547 11.664L25.4047 13.666C25.4047 14.472 25.4047 15.304 25.4047 16.11ZM25.4047 16.864C25.4047 18.19 25.4047 19.49 25.4047 20.816C25.1187 20.92 24.8067 20.92 24.5207 20.868C24.1567 20.816 23.8187 20.608 23.5327 20.374C23.2467 20.114 23.0387 19.828 22.8567 19.49C22.4927 18.788 22.3107 17.956 22.4407 17.176C22.4927 16.786 22.6487 16.422 22.8307 16.084C23.1687 16.188 23.5067 16.292 23.8447 16.396C24.3647 16.552 24.8847 16.708 25.4047 16.864Z" fill="#112233"/>
<path d="M40.1528 9.73999H39.4248C39.4248 9.76599 39.4248 9.76599 39.4248 9.76599V9.73999C39.3728 10.078 39.2168 10.364 38.9568 10.572C38.7228 10.728 38.4368 10.832 38.1508 10.832C37.8388 10.832 37.5528 10.754 37.2928 10.65C36.8508 10.442 36.4868 10.104 36.2268 9.68799L30.8448 12.808V16.448L32.8208 18.008C32.5868 18.216 32.3788 18.424 32.1708 18.632C31.4688 19.334 30.7928 20.088 30.4808 21.024C30.2988 21.674 30.2988 22.376 30.5588 23C30.8188 23.624 31.3388 24.118 31.9628 24.378L32.2228 23.676C32.0668 23.598 31.9628 23.468 31.8848 23.312C31.8328 23.13 31.8328 22.922 31.9108 22.74C31.9628 22.558 32.0928 22.402 32.2488 22.298C32.4828 22.142 32.7428 22.064 33.0288 22.064C33.2888 22.038 33.5488 22.116 33.8088 22.22C34.3028 22.402 34.7448 22.792 35.0048 23.26L40.1268 20.14V16.214L37.8908 14.576C38.1768 14.316 38.4368 14.056 38.6968 13.77C38.9828 13.38 39.2428 12.964 39.4248 12.522C39.8408 11.664 40.0748 10.702 40.1528 9.73999ZM35.3428 16.76L36.7728 17.93V21.31C36.4608 20.582 35.8628 19.984 35.1608 19.646C34.6408 19.386 34.0688 19.282 33.4968 19.308C32.9248 19.36 32.3788 19.568 31.9368 19.906C32.1708 19.646 32.4308 19.386 32.6908 19.126C33.2368 18.606 33.8088 18.086 34.4068 17.566L35.3428 16.76ZM35.2648 15.876L34.1988 14.758V11.378C34.4848 12.106 35.0828 12.73 35.8108 13.042C36.3308 13.276 36.8768 13.354 37.4228 13.276C37.7348 13.224 38.0468 13.146 38.3328 13.016C38.2548 13.12 38.1768 13.224 38.0988 13.328C37.8388 13.666 37.5008 13.952 37.1888 14.212L35.2648 15.876Z" fill="#112233"/>
<path d="M47.0111 20.036L45.8931 20.764L45.0091 19.906V12.054L43.0331 9.68799L39.5231 12.054L39.9131 12.548L40.9011 11.924L41.7851 13.042V19.906L40.1471 21.024L40.5371 21.518L41.3951 20.894L43.8911 23.13L47.6351 20.53L47.0111 20.036ZM40.9531 6.17799L43.1631 8.69999L45.6331 6.51599L43.4231 3.99399L40.9531 6.17799Z" fill="#112233"/>
<path d="M50.9005 19.022V11.56L53.8905 13.536V21.024L50.9005 19.022ZM46.6625 21.258L47.7545 20.374C48.9505 21.258 50.1725 22.142 51.3945 23.026L57.1405 19.516V12.418L53.3965 9.55799L47.5465 12.912C47.5465 15.148 47.5465 17.384 47.5465 19.62L46.2205 20.686L46.6625 21.258Z" fill="#112233"/>
<path d="M70.6262 20.036L69.6122 20.764L68.4942 19.776V12.99L69.7682 11.95L69.3002 11.404L68.2082 12.288L65.2442 9.76599L62.4102 12.002L60.4082 9.76599L56.7942 12.236L57.1582 12.756L58.1462 12.132L59.1602 13.25V20.14L58.1462 21.024L61.1362 23.39L63.6322 21.154L62.5142 20.14V13.016L63.6322 12.132L65.5042 13.744V20.14L64.6202 21.024L67.2462 23.39L71.1202 20.764L70.6262 20.036Z" fill="#112233"/>
<path d="M79.5862 9.29799L79.8462 8.93399C79.5862 8.80399 79.3783 8.59599 79.2742 8.33599C79.1702 8.04999 79.1702 7.76399 79.2742 7.50399C79.3783 7.26999 79.5342 7.06199 79.7162 6.93199C79.9242 6.77599 80.1322 6.67199 80.3922 6.61999C80.8602 6.51599 81.3542 6.56799 81.8222 6.67199C82.9922 6.90599 84.1362 7.24399 85.3062 7.52999C86.4502 7.78999 87.5942 8.12799 88.7642 8.28399C88.8682 8.30999 88.9982 8.33599 89.1022 8.33599V11.534L87.4122 13.25L89.1022 14.966V19.36C88.4522 19.698 87.7242 19.932 86.9702 20.01C85.7222 20.166 84.4222 19.932 83.3302 19.308C82.8882 19.074 82.4722 18.762 82.1082 18.398L86.6842 16.474V8.56999L80.9642 11.014C81.5362 9.76599 82.4463 8.69999 83.5902 7.94599L83.3302 7.55599C81.8482 7.81599 80.4702 8.51799 79.4042 9.55799C78.3382 10.624 77.6103 12.002 77.3242 13.484C76.8822 15.85 77.6622 18.398 79.3002 20.192C80.9382 21.986 83.3822 23 85.8002 22.922C87.1263 22.87 88.4262 22.506 89.5702 21.83C90.7142 21.154 91.6502 20.166 92.2742 18.996C92.8202 17.93 93.1062 16.734 93.0542 15.538H92.5602C92.0922 16.708 91.3382 17.748 90.3762 18.554C90.1942 18.684 90.0382 18.814 89.8302 18.944V14.992L91.5723 13.25L89.8302 11.508V8.38799C90.0642 8.38799 90.2982 8.36199 90.5062 8.33599C91.1042 8.28399 91.6762 8.07599 92.1442 7.76399C92.7162 7.37399 93.1322 6.82799 93.3142 6.17799C93.4702 5.52799 93.3923 4.82599 93.0802 4.25399C92.7942 3.70799 92.3262 3.26599 91.7803 2.97999C91.2602 2.69399 90.6362 2.53799 90.0382 2.45999C89.7262 2.43399 89.3882 2.43399 89.0502 2.45999V2.95399C89.3363 2.97999 89.6222 3.03199 89.9082 3.08399C90.1943 3.16199 90.4542 3.23999 90.6882 3.42199C90.7923 3.49999 90.8962 3.62999 90.9743 3.75999C91.0263 3.86399 91.0522 4.01999 91.0522 4.14999C91.0262 4.30599 90.9743 4.40999 90.8962 4.53999C90.8183 4.64399 90.7142 4.72199 90.6102 4.79999C90.3762 4.90399 90.0902 4.92999 89.8302 4.92999C89.0502 4.90399 88.2962 4.66999 87.5422 4.48799C86.5542 4.27999 85.5922 3.91599 84.6562 3.60399C84.0062 3.39599 83.3562 3.21399 82.6802 3.10999C82.0042 3.03199 81.3282 3.05799 80.6782 3.21399C80.0802 3.36999 79.5082 3.65599 79.0402 4.04599C78.5722 4.43599 78.2082 4.95599 78.0002 5.52799C77.7402 6.22999 77.7662 7.03599 78.0522 7.73799C78.3382 8.43999 78.9102 9.01199 79.5862 9.29799ZM80.6262 11.898L83.3302 10.754V17.124L81.6143 17.852C81.1982 17.306 80.8602 16.682 80.6262 16.032C80.1842 14.706 80.2102 13.224 80.6262 11.898Z" fill="#112233"/>
<path d="M99.8337 20.036L98.7157 20.764L97.8317 19.906V12.054L95.8557 9.68799L92.3457 12.054L92.7357 12.548L93.7237 11.924L94.6077 13.042V19.906L92.9697 21.024L93.3597 21.518L94.2177 20.894L96.7137 23.13L100.458 20.53L99.8337 20.036ZM93.7757 6.17799L95.9857 8.69999L98.4557 6.51599L96.2457 3.99399L93.7757 6.17799Z" fill="#112233"/>
<path d="M111.783 21.076L110.431 19.88V12.938L111.809 12.106L113.603 13.744V20.14L112.511 21.154L115.085 23.39L118.933 20.894V19.932L117.815 20.764L116.593 19.542V13.016L117.893 11.95L117.425 11.404L116.567 12.08L113.863 9.76599L110.301 11.976L107.701 9.76599L104.295 11.898L102.397 9.76599L98.7832 12.236L99.1472 12.756L100.135 12.132L101.149 13.25V20.14L100.135 21.024L103.125 23.39L105.621 21.154L104.503 20.14V12.782L105.647 12.106L107.441 13.744V20.14L106.349 21.154L108.923 23.39L111.783 21.076Z" fill="#112233"/>
<path d="M118.16 21.336L119.304 20.4L123.178 23.26L128.534 18.918L128.144 18.294L125.284 20.53L122.164 18.398V17.28L127.78 13.796V13.666L125.154 9.68799L118.94 12.912V19.776L117.692 20.764L118.16 21.336ZM122.164 16.656V11.95L122.658 11.664L124.92 14.914L122.164 16.656Z" fill="#112233"/>
<path d="M137.224 9.73999H136.496C136.496 9.76599 136.496 9.76599 136.496 9.76599V9.73999C136.444 10.078 136.288 10.364 136.028 10.572C135.794 10.728 135.508 10.832 135.222 10.832C134.91 10.832 134.624 10.754 134.364 10.65C133.922 10.442 133.558 10.104 133.298 9.68799L127.916 12.808V16.448L129.892 18.008C129.658 18.216 129.45 18.424 129.242 18.632C128.54 19.334 127.864 20.088 127.552 21.024C127.37 21.674 127.37 22.376 127.63 23C127.89 23.624 128.41 24.118 129.034 24.378L129.294 23.676C129.138 23.598 129.034 23.468 128.956 23.312C128.904 23.13 128.904 22.922 128.982 22.74C129.034 22.558 129.164 22.402 129.32 22.298C129.554 22.142 129.814 22.064 130.1 22.064C130.36 22.038 130.62 22.116 130.88 22.22C131.374 22.402 131.816 22.792 132.076 23.26L137.198 20.14V16.214L134.962 14.576C135.248 14.316 135.508 14.056 135.768 13.77C136.054 13.38 136.314 12.964 136.496 12.522C136.912 11.664 137.146 10.702 137.224 9.73999ZM132.414 16.76L133.844 17.93V21.31C133.532 20.582 132.934 19.984 132.232 19.646C131.712 19.386 131.14 19.282 130.568 19.308C129.996 19.36 129.45 19.568 129.008 19.906C129.242 19.646 129.502 19.386 129.762 19.126C130.308 18.606 130.88 18.086 131.478 17.566L132.414 16.76ZM132.336 15.876L131.27 14.758V11.378C131.556 12.106 132.154 12.73 132.882 13.042C133.402 13.276 133.948 13.354 134.494 13.276C134.806 13.224 135.118 13.146 135.404 13.016C135.326 13.12 135.248 13.224 135.17 13.328C134.91 13.666 134.572 13.952 134.26 14.212L132.336 15.876Z" fill="#112233"/>
<path fill-rule="evenodd" clip-rule="evenodd" d="M138 32H0V31H138V32Z" fill="#FF9F05"/>
</svg>
